PathFileType	4	(X/Y/Z)	C:\Users\Biomechanik\SynologyDrive\AlexP\Athlete_03\Athlete_3_25_03_31\Walking_03\marker_experimental.trc
DataRate	CameraRate	NumFrames	NumMarkers	Units	OrigDataRate	OrigDataStartFrame	OrigNumFrames
200.000000	200.000000	4	53	mm	200.000000	0	246
Frame#	Time	GLAB			RFHD			LFHD			C7			T6			SPINMOL			SPINM2			SPINM3			T12			BELTOL			BELT2			BELT3			SACROL			SACR2			SACR3			LTHOL			LTH2			LTH3			LSHAOL			LSHA2			LSHA3			LHEE			LTOE			LM5			RTHOL			RTH2			RTH3			RSHAOL			RSHA2			RSHA3			RHEE			RTOE			RM5			STRN			XIPH			LACR			LUAOL			LUA2			LUA3			LLAOL			LLA2			LLA3			LWRR			LWRU			RACR			RUAOL			RUA2			RUA3			RLAOL			RLA2			RLA3			RWRR			RWRU			
		X1	Y1	Z1	X2	Y2	Z2	X3	Y3	Z3	X4	Y4	Z4	X5	Y5	Z5	X6	Y6	Z6	X7	Y7	Z7	X8	Y8	Z8	X9	Y9	Z9	X10	Y10	Z10	X11	Y11	Z11	X12	Y12	Z12	X13	Y13	Z13	X14	Y14	Z14	X15	Y15	Z15	X16	Y16	Z16	X17	Y17	Z17	X18	Y18	Z18	X19	Y19	Z19	X20	Y20	Z20	X21	Y21	Z21	X22	Y22	Z22	X23	Y23	Z23	X24	Y24	Z24	X25	Y25	Z25	X26	Y26	Z26	X27	Y27	Z27	X28	Y28	Z28	X29	Y29	Z29	X30	Y30	Z30	X31	Y31	Z31	X32	Y32	Z32	X33	Y33	Z33	X34	Y34	Z34	X35	Y35	Z35	X36	Y36	Z36	X37	Y37	Z37	X38	Y38	Z38	X39	Y39	Z39	X40	Y40	Z40	X41	Y41	Z41	X42	Y42	Z42	X43	Y43	Z43	X44	Y44	Z44	X45	Y45	Z45	X46	Y46	Z46	X47	Y47	Z47	X48	Y48	Z48	X49	Y49	Z49	X50	Y50	Z50	X51	Y51	Z51	X52	Y52	Z52	X53	Y53	Z53	

1	0	-494.8096313476564	1574.25634765625	202.8701171874999	-547.1257934570314	1599.6708984375	266.0230102539061	-536.4398193359376	1599.223510742188	129.0841522216796	-726.3170776367189	1419.095092773438	183.445602416992	-789.3449707031251	1251.74658203125	181.641876220703	-798.8412475585939	1211.182739257812	161.2994384765624	-803.3510131835939	1204.6943359375	211.127960205078	-794.9401855468751	1147.355224609375	178.3432312011717	-770.9661254882814	1081.32958984375	183.0678405761717	-809.3638916015626	1048.50439453125	173.0630950927733	-805.2697753906251	1044.981323242188	223.2356872558592	-814.3684082031251	985.9173583984375	193.3184661865233	-800.6337890625001	944.7350463867188	178.7267913818358	-791.4158935546876	937.8005981445312	228.6990509033202	-817.3016967773438	883.9207153320312	200.1345062255858	-777.2786254882812	677.5247802734375	9.286664009094096	-836.5941162109375	638.948486328125	45.54378509521469	-794.3526611328125	621.5616455078125	26.1391105651854	-885.3642578125	335.4939270019531	35.37311172485335	-949.2342529296875	290.0355834960937	48.85830688476545	-901.1036376953125	276.3879394531249	45.65511322021468	-1023.622314453125	107.9666900634765	142.9496002197264	-815.103759765625	41.63078308105464	142.6671905517577	-861.5774536132812	29.89854049682612	41.60754776000961	-634.5339355468751	645.066650390625	369.809356689453	-564.9725341796876	614.4364624023438	392.144317626953	-601.4049682617189	595.4865112304688	362.7765502929686	-494.0769653320313	323.6028442382812	375.2273559570311	-431.0507507324219	279.6943359375	383.7510986328124	-475.0373840332032	265.8858337402343	364.8184204101561	-382.4403076171876	55.49639511108396	277.0313415527343	-194.3072357177735	148.2425537109375	300.0050354003906	-230.3549804687501	101.6537628173828	395.7190856933593	-556.5601196289064	1312.684204101562	189.2213439941405	-543.9061889648439	1169.524658203125	184.6468200683593	-644.7675781250001	1384.251220703125	14.77673244476306	-622.2916259765626	1240.23486328125	-92.18110656738293	-619.2509155273439	1178.378173828125	-113.9613647460939	-577.5452270507814	1193.289916992188	-90.58601379394541	-494.8802490234376	1009.297180175781	-139.6888580322266	-488.5827026367188	932.123046875	-123.5189132690431	-452.0423889160157	966.2764282226562	-130.9969635009766	-373.7021789550782	899.9038696289062	-115.443588256836	-355.1392211914063	932.8057861328125	-45.9747276306153	-650.4453735351565	1370.825805664062	355.4036865234374	-697.5422973632815	1230.004150390625	453.5843200683593	-685.586120605469	1167.31884765625	468.8771057128905	-735.0576171875002	1178.594970703125	471.9004821777343	-735.685974121094	959.33447265625	519.4246826171874	-692.5196533203126	906.220947265625	558.2975463867186	-730.4462890625001	897.2556762695312	527.6743774414061	-702.4812622070314	813.7958984375	551.7238159179686	-651.6455078125001	793.3038330078125	491.2622070312499	
2	0.005	-490.9700927734377	1573.64453125	203.7123870849609	-543.3007812500001	1598.96630859375	266.9182739257811	-532.5922851562501	1598.692138671875	129.9476013183593	-722.4259033203126	1418.48193359375	184.1298065185545	-785.4745483398439	1251.164428710938	182.1951599121092	-794.9779663085939	1210.60791015625	161.8276214599608	-799.4784545898439	1204.092529296875	211.6557006835936	-791.0802001953126	1146.77099609375	178.8329010009764	-767.0937500000001	1080.726684570312	183.4983825683592	-805.5162353515626	1047.932373046875	173.6635742187499	-801.3562011718751	1044.378784179688	223.8258361816405	-810.5062866210939	985.3341674804688	193.886032104492	-796.7861328125001	944.1688232421875	179.2449645996092	-787.4924926757814	937.176025390625	229.2024536132811	-813.436767578125	883.3310546875	200.6079101562499	-774.2147827148438	677.4641723632812	9.379697799682475	-833.4610595703125	638.9328002929688	45.7867927551268	-791.3154907226562	621.4614868164062	26.26949691772446	-883.4011840820312	335.8479309082031	35.24523162841781	-947.5479125976562	290.7951049804687	48.6547660827635	-899.4822387695312	276.8496093749999	45.53915023803695	-1023.13525390625	109.2188873291015	142.6817474365232	-814.9732666015625	41.55098724365229	142.6363525390624	-861.4180908203125	29.88870811462397	41.57369613647445	-629.8417358398439	644.6568603515625	370.3565979003905	-560.0588378906251	614.2843017578125	392.1314697265624	-596.6729125976564	595.1239013671875	363.2084655761718	-489.8186340332032	323.0360107421874	375.0933532714843	-426.7395629882813	278.9527587890625	383.6657104492187	-470.7574768066407	265.3428344726562	364.6326293945311	-377.8947143554688	54.96877288818357	276.9737548828124	-189.9181213378907	148.1410980224609	299.5163574218749	-225.5911865234376	101.3581161499023	395.2979431152343	-552.6737670898439	1312.0419921875	189.7647552490233	-540.0379028320314	1168.884765625	185.0340423583984	-640.8989868164064	1383.792602539062	15.42277526855457	-618.4717407226564	1239.852294921875	-91.59198760986339	-615.3756103515626	1177.957641601562	-113.3813476562501	-573.7264404296876	1192.933227539062	-90.09758758544932	-490.8394775390626	1009.074523925781	-139.2122650146485	-484.3070068359376	931.9158325195312	-123.0051193237306	-447.9107971191407	966.1846923828125	-130.4856414794923	-369.3907165527344	900.01123046875	-114.8683624267579	-350.9257202148438	933.0177612304688	-45.42993545532233	-646.5789184570315	1370.047607421875	356.0211181640624	-693.7487792968752	1229.181396484375	454.0559997558593	-681.788269042969	1166.449096679688	469.3196716308593	-731.2915039062502	1177.748901367188	472.3272399902343	-732.0142822265627	958.5048217773438	519.7729492187499	-688.9102172851564	905.3114013671875	558.6286621093749	-726.8482666015626	896.4171142578125	528.0028076171874	-698.9960327148439	812.9275512695312	552.0615844726561	-648.1987915039064	792.3827514648438	491.5965881347655	
3	0.01	-486.5538940429689	1572.9619140625	204.6834259033202	-538.8993530273439	1598.17822265625	267.9450073242186	-528.1684570312501	1598.09814453125	130.9432373046874	-717.9462890625001	1417.791381835938	184.924591064453	-781.0148925781251	1250.5078125	182.8350830078124	-790.5251464843751	1209.959838867188	162.437789916992	-795.0169677734376	1203.4130859375	212.2650451660155	-786.6314697265626	1146.112182617188	179.3988342285155	-762.6292724609376	1080.045532226562	183.9973754882811	-801.0833740234376	1047.275390625	174.3503417968749	-796.8522338867189	1043.689208984375	224.5016784667967	-806.0542602539064	984.6650390625	194.5374145507811	-792.3435668945314	943.5164184570312	179.832550048828	-782.9680175781251	936.4603881835938	229.7734222412108	-808.9716796875	882.6519165039062	201.1461486816405	-770.6257934570312	677.3790283203125	9.495956420898295	-829.8062744140625	638.9027099609375	46.06133651733384	-787.765380859375	621.3373413085938	26.42252540588364	-881.0886840820312	336.2626953124999	35.09629058837874	-945.5547485351562	291.6873779296874	48.41641235351545	-897.5682373046875	277.3966979980468	45.4033241271971	-1022.528991699219	110.7025070190429	142.3717498779295	-814.8281860351562	41.45044708251948	142.6044769287108	-861.2282104492188	29.88284873962397	41.53389739990219	-624.3969726562501	644.2229614257812	370.9967346191405	-554.3503417968751	614.1405639648438	392.1151428222655	-591.1808471679689	594.7409057617188	363.709991455078	-484.9605102539063	322.4101562499999	374.9407958984374	-421.8591918945313	278.0934753417969	383.5545349121093	-465.9199523925782	264.7310791015624	364.414825439453	-372.9293823242188	54.34297943115232	276.8820495605468	-185.0522766113282	147.8034515380859	298.9360656738281	-220.3526458740235	100.8599853515625	394.7992858886718	-548.1978759765626	1311.31982421875	190.4022827148436	-535.5800170898439	1168.166259765625	185.4953002929687	-636.4378662109376	1383.279418945312	16.17661476135242	-614.0712890625001	1239.42724609375	-90.90616607666027	-610.9215087890626	1177.489990234375	-112.7036743164064	-569.3350219726564	1192.5283203125	-89.52600860595713	-486.2262268066407	1008.815673828125	-138.6624450683595	-479.4389953613282	931.6730346679688	-122.4139404296876	-443.1979675292969	966.0665893554688	-129.8973846435548	-364.4820556640626	900.1115112304688	-114.212142944336	-346.1230163574219	933.2317504882812	-44.8059043884278	-642.1247558593752	1369.168212890625	356.739532470703	-689.368347167969	1228.242431640625	454.6033935546874	-677.4057617187502	1165.4638671875	469.8356018066405	-726.9378051757815	1176.785522460938	472.8213806152343	-727.7702636718752	957.5568237304688	520.1696777343749	-684.7418212890626	904.2767333984375	559.0107421874999	-722.6878662109376	895.4591064453125	528.3766479492186	-694.9625854492189	811.9369506835938	552.4452514648436	-644.2097167968751	791.3330078125	491.9759826660155	
4	0.015	-481.5950317382814	1572.22021484375	205.7763366699218	-533.9550781250001	1597.319580078125	269.0947875976561	-523.2027587890626	1597.451416015625	132.0638427734374	-712.9114990234376	1417.033325195312	185.826217651367	-775.9979248046876	1249.785888671875	183.5579528808592	-785.5141601562501	1209.247802734375	163.1261749267577	-789.9985351562501	1202.665283203125	212.9521026611327	-781.6254882812501	1145.387939453125	180.0376892089842	-757.6035156250001	1079.29541015625	184.5623321533202	-796.0966796875001	1046.538818359375	175.1167755126952	-791.7910766601564	1042.918823242188	225.2568969726561	-801.0429077148439	983.91552734375	195.2669525146483	-787.3347778320314	942.7828979492188	180.4824829101561	-777.8731689453126	935.6605834960938	230.4053497314452	-803.9343872070312	881.8886108398438	201.7433166503905	-766.5204467773438	677.2656860351562	9.636926651000836	-825.6417846679688	638.854736328125	46.36454010009751	-783.7117919921875	621.1876220703125	26.59836006164536	-878.4275512695312	336.7374572753906	34.92704010009749	-943.2532348632812	292.7113952636718	48.14434051513655	-895.3607177734375	278.0296020507812	45.24836349487288	-1021.792907714844	112.4197235107421	142.022018432617	-814.6715087890625	41.32725143432612	142.5730590820311	-861.0065307617188	29.88254547119135	41.48817825317367	-618.2311401367189	643.779296875	371.7264404296874	-547.8796386718751	614.0148315429688	392.0971374511718	-584.9600219726564	594.3500366210938	364.2783813476561	-479.5510559082032	321.7380981445312	374.772735595703	-416.4689941406251	277.1219177246094	383.4158020019531	-460.5856628417969	264.059814453125	364.1671752929687	-367.6581726074219	53.62044906616209	276.7503356933593	-179.8000793457032	147.1691436767578	298.2634887695312	-214.7492065429688	100.1188278198242	394.2227783203124	-543.1652221679689	1310.528442382812	191.1328582763671	-530.5637207031251	1167.380126953125	186.0318756103515	-631.4149780273439	1382.72021484375	17.03571128845203	-609.1218261718751	1238.967651367188	-90.12647247314464	-605.9242553710939	1176.984252929688	-111.9310531616212	-564.4049682617189	1192.080078125	-88.87253570556651	-481.0864868164063	1008.521789550781	-138.0431518554688	-474.0311584472657	931.3953247070312	-121.7500534057618	-437.9519348144532	965.9193725585938	-129.236785888672	-359.0292663574219	900.1964721679688	-113.4813308715821	-340.7811584472657	933.43701171875	-44.10831069946295	-637.115173339844	1368.19921875	357.5563049316405	-684.429870605469	1227.197387695312	455.2241821289061	-672.468200683594	1164.37548828125	470.4233093261718	-722.023864746094	1175.714965820312	473.3803405761718	-722.9805297851565	956.4999389648438	520.6110229492186	-680.0408935546876	903.1278686523438	559.4407348632811	-717.9902343750001	894.3911743164062	528.7918090820311	-690.4044799804689	810.8345947265625	552.8705444335936	-639.7012329101564	790.1658325195312	492.3959655761718	
